<?xml version="1.0" encoding="utf-8"?>
<!-- Generator: Adobe Illustrator 19.1.0, SVG Export Plug-In . SVG Version: 6.00 Build 0)  -->
<svg version="1.1" xmlns="http://www.w3.org/2000/svg" xmlns:xlink="http://www.w3.org/1999/xlink" x="0px" y="0px"
	 viewBox="0 0 100 100" style="enable-background:new 0 0 100 100;" xml:space="preserve">
<style type="text/css">
	.st0{fill:#333333;}
	.st1{fill:#FFFFFF;}
</style>
<g id="Layer_2">
	<rect y="0.1" class="st0" width="99.9" height="99.8"/>
</g>
<g id="Layer_1">
	<g>
		<path class="st1" d="M98,1.9c-2.5-2.5-6.6-2.5-9.1,0L27.2,63.7c-2.5,2.5-2.5,6.6,0,9.1c2.5,2.5,6.6,2.5,9.1,0L98,11.1
			C100.6,8.5,100.5,4.5,98,1.9z"/>
		<path class="st1" d="M88.9,74.9l-14,14c-2.5,2.5-2.5,6.6,0,9.1c2.5,2.5,6.6,2.5,9.1,0l14-14c2.5-2.5,2.5-6.6,0-9.1
			C95.5,72.4,91.4,72.4,88.9,74.9z"/>
		<path class="st1" d="M98.1,38.4c-2.5-2.5-6.6-2.5-9.1,0L62.7,64.6c-2.5,2.5-2.5,6.6,0,9.1c2.5,2.5,6.6,2.5,9.1,0l26.3-26.3
			C100.6,45,100.6,40.9,98.1,38.4z"/>
		<path class="st1" d="M25,2c-2.5-2.5-6.6-2.5-9.1,0l-14,14c-2.5,2.5-2.5,6.6,0,9.1c2.5,2.5,6.6,2.5,9.1,0l14-14
			C27.6,8.6,27.6,4.5,25,2z"/>
		<path class="st1" d="M35.4,37.3L61.6,11c2.5-2.5,2.5-6.6,0-9.1c-2.5-2.5-6.6-2.5-9.1,0L26.2,28.2c-2.5,2.5-2.5,6.6,0,9.1
			C28.8,39.8,32.8,39.8,35.4,37.3z"/>
	</g>
</g>
</svg>
