<?xml version="1.0" encoding="utf-8"?>
<!-- Generator: Adobe Illustrator 19.1.0, SVG Export Plug-In . SVG Version: 6.00 Build 0)  -->
<svg version="1.1" xmlns="http://www.w3.org/2000/svg" xmlns:xlink="http://www.w3.org/1999/xlink" x="0px" y="0px"
	 viewBox="0 0 458 80" style="enable-background:new 0 0 458 80;" xml:space="preserve">
<style type="text/css">
	.st0{fill:#333333;}
	.st1{fill:#F15A59;}
	.st2{fill-rule:evenodd;clip-rule:evenodd;fill:#F7F7F7;}
	.st3{fill:#F7F7F7;}
	.st4{fill:#CFCFD0;}
</style>
<g id="Layer_2">
	<rect y="-0.4" class="st0" width="458" height="79.5"/>
</g>
<g id="Layer_1">
	<g>
		<path class="st1" d="M70.8,2.8C69,1,66.1,1,64.2,2.8L19.6,47.4c-1.8,1.8-1.8,4.8,0,6.6c1.8,1.8,4.8,1.8,6.6,0L70.8,9.4
			C72.7,7.6,72.6,4.6,70.8,2.8z"/>
		<path class="st1" d="M64.2,55.5L54.1,65.7c-1.8,1.8-1.8,4.8,0,6.6c1.8,1.8,4.8,1.8,6.6,0l10.1-10.1c1.8-1.8,1.8-4.8,0-6.6
			C69,53.7,66,53.7,64.2,55.5z"/>
		<path class="st1" d="M70.9,29.1c-1.8-1.8-4.8-1.8-6.6,0l-19,19c-1.8,1.8-1.8,4.8,0,6.6c1.8,1.8,4.8,1.8,6.6,0l19-19
			C72.7,33.9,72.7,30.9,70.9,29.1z"/>
		<path class="st1" d="M18.1,2.8c-1.8-1.8-4.8-1.8-6.6,0L1.4,12.9c-1.8,1.8-1.8,4.8,0,6.6c1.8,1.8,4.8,1.8,6.6,0L18.1,9.4
			C19.9,7.6,19.9,4.6,18.1,2.8z"/>
		<path class="st1" d="M25.5,28.3l19-19c1.8-1.8,1.8-4.8,0-6.6c-1.8-1.8-4.8-1.8-6.6,0l-19,19c-1.8,1.8-1.8,4.8,0,6.6
			C20.8,30.1,23.7,30.1,25.5,28.3z"/>
	</g>
	<path class="st2" d="M283.6,35.2c3.3,0.5,6.6,1.6,10,1.9c2.6,0.2,6.1,0.3,7.9-2c2.9-3.9,0-7.2-3.6-9c-3.5-1.8-7.4-3-10.5-5.5
		c-3.3-2.7-4.4-7-3.6-11.1c1.6-7.5,8.7-8.7,15.2-8.2c3.4,0.3,6.8,0.9,10.2,1.2c-1.1,2.8-1.8,4.5-2.4,6c-0.1,0.2-5.3-1.1-5.8-1.2
		c-3.3-0.6-7.3-0.6-9.5,2.4c-2.2,2.9,0,6,2.6,7.4c4.9,2.7,13.1,4.1,14.8,10.3c1.1,3.8,0.6,8.4-2.1,11.4c-2.7,3-7.2,4-11.1,4.1
		c-2.2,0.1-4.5,0-6.7-0.2C283.2,42,282.7,41.2,283.6,35.2z"/>
	<path class="st2" d="M211.7,42.4c-2.1,0-3.9,0-6.5,0c0-5.6,0-11.3-0.1-16.9c-0.1-3.9,0-8.2-4.7-9.1c-2.6-0.5-5.6,0.3-7.1,2.5
		c-1.6,2.3-1.8,5.1-1.9,7.8c-0.2,3.2-0.2,6.4-0.2,9.6c0,2,0,4.1,0,6.1c-2.4,0-4.3,0-6.5,0c-0.1-1.2-0.3-2.2-0.3-3.2
		c0-9.1,0-18.2,0-28.6c2.9,1.2,4.9,2.1,7.4,3.2c1.1-0.6,3.2-1.9,5.4-2.5c1.6-0.5,3.7-0.5,5.3-0.4c1.6,0.1,3.2,0.4,4.6,1.2
		c3.2,1.8,4.2,5.6,4.6,9c0.3,3.2,0.2,6.4,0.2,9.5c0,3.3,0,6.7-0.1,10C212,40.9,211.9,41.4,211.7,42.4z"/>
	<path class="st2" d="M150.7,11.6c2.1,0,4.1,0,6.5,0c0,5.9,0,11.8,0,17.6c0,5.7,2,8.5,6.1,8.5c4.6,0,7.6-3.3,7.7-8.8
		c0.1-5.7,0-11.3,0-17.2c2.5,0,4.5,0,6.7,0c0,10.3,0,20.3,0,30.7c-1.6,0.1-3.1,0.2-4.8,0.2c-0.5-1.2-0.9-2.2-1.5-3.6
		c-3.4,3.5-7.4,4.3-11.9,3.8c-5.4-0.5-8.3-2.7-8.7-8C150.3,27.1,150.7,19.5,150.7,11.6z"/>
	<path class="st2" d="M85.8,1.4c2.1,0,4,0,6.2,0c0,11.7,0,23.1,0,35c5.9,0,11.4,0,17.2,0c0,2.2,0,4,0,5.9c-7.8,0-15.4,0-23.4,0
		C85.8,28.8,85.8,15.2,85.8,1.4z"/>
	<path class="st2" d="M339.6,12.9c-0.8,1.8-1.4,3.4-2.1,5c-4.8-1.5-9.6-3.3-13.1,1.8c-3.4,4.9-2.8,16.7,4.6,17.4
		c3,0.3,6.2-0.6,9.1-1.4c1.3,5.8,0.7,6.6-5.2,7c-3.5,0.3-7.8,0.3-11-1.5c-6.8-3.9-7.6-15.8-4.9-22.2c2.2-5.3,7.2-8.7,13-8.5
		C333.1,10.7,336.9,11.5,339.6,12.9z"/>
	<path class="st2" d="M242.5,12.9c-0.7,1.8-1.4,3.4-2.1,5c-4.8-1.5-9.6-3.3-13.1,1.8c-3.4,4.9-2.8,16.7,4.6,17.4
		c3,0.3,6.2-0.6,9.1-1.4c1.3,5.8,0.7,6.6-5.2,7c-3.5,0.3-7.8,0.3-11-1.5c-6.8-3.9-7.6-15.8-4.9-22.2c2.2-5.3,7.2-8.7,13-8.5
		C236,10.7,239.8,11.5,242.5,12.9z"/>
	<path class="st2" d="M400.6,11.6c-11.3-3.8-20.2,2.8-20.2,14.9c0,7.7,3.1,14.9,11.4,16.2c6.5,1,13.8-1,16.4-7.6
		c0.8-2,1.5-4.4,1.6-6.5C410.1,21.7,407.7,14,400.6,11.6z M396.5,37.1c-4.9,0.5-8.1-2.7-9.1-7.1c-0.7-3.3-0.5-7.3,1.2-10.2
		c2-3.4,7-4.8,10.4-2.4c2.6,1.8,3.7,5,3.9,8.1C403.3,30.1,402.1,36.5,396.5,37.1z"/>
	<path class="st2" d="M436.2,11.6C424.9,7.8,416,14.4,416,26.5c0,7.7,3.1,14.9,11.4,16.2c6.5,1,13.8-1,16.4-7.6
		c0.8-2,1.5-4.4,1.6-6.5C445.7,21.7,443.3,14,436.2,11.6z M432.1,37.1c-4.9,0.5-8.1-2.7-9.1-7.1c-0.7-3.3-0.5-7.3,1.2-10.2
		c2-3.4,7-4.8,10.4-2.4c2.6,1.8,3.7,5,3.9,8.1C438.9,30.1,437.7,36.5,432.1,37.1z"/>
	<path class="st2" d="M142.9,19c-0.1-1.4-0.4-2.8-1.2-4.1c-1.5-2.2-4.4-3.6-7-4c-3.1-0.5-6.5-0.3-9.6,0.5c-0.5,0.1-5.4,1.9-5.3,2.1
		c0.8,1.6,1.4,3,2,4.4c12.6-2.7,14.9-1.9,14.3,5.6c0-0.2-6.1,0.2-6.8,0.2c-3.2,0.3-6.7,0.8-9.4,2.6c-2.3,1.5-3.5,4.8-3.5,7.4
		c0.1,2.8,1,5.8,3.4,7.4c3.9,2.5,10,2.5,13.8,0c0.4-0.2,3.2-2.3,3-2.7c0.8,1.8,1.3,2.9,1.8,4.1c1.6-0.1,2.8-0.2,4.3-0.3
		c0-7,0-14,0-21C142.9,20.6,142.9,19.8,142.9,19z M128.3,37.7c-1.8-0.3-3.7-1.6-4.2-3.4c-1-4.4,4.3-5.8,7.5-6.3
		c0.5-0.1,4.8-0.7,4.8-0.8C136.5,34.6,133.3,38.5,128.3,37.7z"/>
	<path class="st3" d="M373.6,42.7h-6.5V23.9c0-2.4-0.5-4.1-1.4-5.3c-1-1.2-2.5-1.7-4.5-1.7c-2.7,0-4.7,0.8-6,2.4
		c-1.3,1.6-1.9,4.4-1.9,8.2v15.2h-6.5v-43h6.5v10.9c0,1.8-0.1,3.6-0.3,5.6h0.4c0.9-1.5,2.1-2.6,3.7-3.4c1.6-0.8,3.4-1.2,5.5-1.2
		c7.4,0,11.1,3.7,11.1,11.2V42.7z"/>
	<path class="st3" d="M276.1,42.7h-6.5V23.9c0-2.4-0.5-4.1-1.4-5.3c-1-1.2-2.5-1.7-4.5-1.7c-2.7,0-4.7,0.8-6,2.4
		c-1.3,1.6-1.9,4.4-1.9,8.2v15.2h-6.5v-43h6.5v10.9c0,1.8-0.1,3.6-0.3,5.6h0.4c0.9-1.5,2.1-2.6,3.7-3.4c1.6-0.8,3.4-1.2,5.5-1.2
		c7.4,0,11.1,3.7,11.1,11.2V42.7z"/>
	<path class="st2" d="M452-0.4c2.1,0,3.9,0,6,0c0,14.5,0,28.7,0,43.3c-2,0-3.8,0-6,0C452,28.5,452,14.3,452-0.4z"/>
	<g>
		<path class="st4" d="M98.2,73.6l-2-5.1h-6.5l-2,5.1h-1.9l6.4-16.2h1.6l6.4,16.2H98.2z M95.6,66.8l-1.9-5c-0.2-0.6-0.5-1.4-0.8-2.3
			c-0.2,0.7-0.4,1.5-0.7,2.3l-1.9,5H95.6z"/>
		<path class="st4" d="M110.4,73.6v-7.8c0-1-0.2-1.7-0.7-2.2c-0.4-0.5-1.2-0.7-2.1-0.7c-1.3,0-2.2,0.3-2.8,1
			c-0.6,0.7-0.9,1.8-0.9,3.4v6.4h-1.8V61.5h1.5l0.3,1.7h0.1c0.4-0.6,0.9-1.1,1.6-1.4c0.7-0.3,1.4-0.5,2.3-0.5c1.5,0,2.6,0.4,3.3,1.1
			s1.1,1.8,1.1,3.4v7.9H110.4z"/>
		<path class="st4" d="M136.2,65.5c0,2.6-0.7,4.6-2,6.1c-1.3,1.5-3.1,2.2-5.5,2.2c-2.4,0-4.2-0.7-5.5-2.2c-1.3-1.5-1.9-3.5-1.9-6.2
			c0-2.6,0.6-4.7,1.9-6.1s3.1-2.2,5.5-2.2c2.3,0,4.1,0.7,5.4,2.2S136.2,62.9,136.2,65.5z M123.3,65.5c0,2.2,0.5,3.9,1.4,5
			s2.3,1.7,4.1,1.7c1.8,0,3.1-0.6,4.1-1.7c0.9-1.1,1.4-2.8,1.4-5c0-2.2-0.5-3.8-1.4-5c-0.9-1.1-2.3-1.7-4-1.7
			c-1.8,0-3.2,0.6-4.1,1.7C123.8,61.7,123.3,63.4,123.3,65.5z"/>
		<path class="st4" d="M147.8,73.6v-7.8c0-1-0.2-1.7-0.7-2.2c-0.4-0.5-1.2-0.7-2.1-0.7c-1.3,0-2.2,0.3-2.8,1
			c-0.6,0.7-0.9,1.8-0.9,3.4v6.4h-1.8V61.5h1.5l0.3,1.7h0.1c0.4-0.6,0.9-1.1,1.6-1.4c0.7-0.3,1.4-0.5,2.3-0.5c1.5,0,2.6,0.4,3.3,1.1
			s1.1,1.8,1.1,3.4v7.9H147.8z"/>
		<path class="st4" d="M155.3,73.6h-1.8V56.4h1.8V73.6z"/>
		<path class="st4" d="M159,58.2c0-0.4,0.1-0.7,0.3-0.9c0.2-0.2,0.5-0.3,0.8-0.3c0.3,0,0.5,0.1,0.8,0.3c0.2,0.2,0.3,0.5,0.3,0.9
			c0,0.4-0.1,0.7-0.3,0.9c-0.2,0.2-0.5,0.3-0.8,0.3c-0.3,0-0.6-0.1-0.8-0.3C159.1,58.9,159,58.6,159,58.2z M161,73.6h-1.8V61.5h1.8
			V73.6z"/>
		<path class="st4" d="M173.2,73.6v-7.8c0-1-0.2-1.7-0.7-2.2c-0.4-0.5-1.2-0.7-2.1-0.7c-1.3,0-2.2,0.3-2.8,1
			c-0.6,0.7-0.9,1.8-0.9,3.4v6.4h-1.8V61.5h1.5l0.3,1.7h0.1c0.4-0.6,0.9-1.1,1.6-1.4c0.7-0.3,1.4-0.5,2.3-0.5c1.5,0,2.6,0.4,3.3,1.1
			s1.1,1.8,1.1,3.4v7.9H173.2z"/>
		<path class="st4" d="M183.9,73.8c-1.8,0-3.2-0.5-4.2-1.6c-1-1.1-1.6-2.6-1.6-4.5c0-2,0.5-3.5,1.4-4.7c1-1.2,2.3-1.7,3.9-1.7
			c1.5,0,2.7,0.5,3.6,1.5s1.3,2.3,1.3,4v1.2H180c0,1.4,0.4,2.5,1.1,3.2c0.7,0.7,1.6,1.1,2.9,1.1c1.3,0,2.6-0.3,3.9-0.8v1.6
			c-0.6,0.3-1.3,0.5-1.8,0.6C185.5,73.8,184.8,73.8,183.9,73.8z M183.4,62.8c-1,0-1.8,0.3-2.3,1s-0.9,1.5-1,2.6h6.3
			c0-1.2-0.3-2-0.8-2.7C185.1,63.1,184.4,62.8,183.4,62.8z"/>
		<path class="st4" d="M206.8,69.3c0,1.4-0.5,2.5-1.5,3.3c-1,0.8-2.4,1.2-4.2,1.2c-1.9,0-3.4-0.2-4.4-0.7v-1.8
			c0.7,0.3,1.4,0.5,2.2,0.7c0.8,0.2,1.6,0.2,2.3,0.2c1.3,0,2.2-0.2,2.8-0.7c0.6-0.5,1-1.1,1-2c0-0.6-0.1-1-0.3-1.4
			c-0.2-0.4-0.6-0.7-1.1-1c-0.5-0.3-1.3-0.6-2.4-1c-1.5-0.5-2.6-1.2-3.2-1.9c-0.6-0.7-1-1.7-1-2.9c0-1.2,0.5-2.2,1.4-3
			c0.9-0.7,2.2-1.1,3.7-1.1c1.6,0,3.1,0.3,4.4,0.9l-0.6,1.6c-1.3-0.6-2.6-0.8-3.9-0.8c-1,0-1.8,0.2-2.3,0.6c-0.6,0.4-0.8,1-0.8,1.8
			c0,0.6,0.1,1,0.3,1.4s0.6,0.7,1,1c0.5,0.3,1.2,0.6,2.3,1c1.7,0.6,2.9,1.3,3.5,1.9C206.5,67.3,206.8,68.2,206.8,69.3z"/>
		<path class="st4" d="M214.7,73.8c-1.8,0-3.1-0.5-4.1-1.6c-1-1.1-1.4-2.6-1.4-4.6c0-2,0.5-3.6,1.5-4.7c1-1.1,2.4-1.7,4.2-1.7
			c0.6,0,1.2,0.1,1.7,0.2c0.6,0.1,1,0.3,1.4,0.4l-0.6,1.6c-0.4-0.2-0.8-0.3-1.3-0.4s-0.9-0.2-1.3-0.2c-2.5,0-3.7,1.6-3.7,4.7
			c0,1.5,0.3,2.6,0.9,3.4c0.6,0.8,1.5,1.2,2.7,1.2c1,0,2-0.2,3.1-0.7v1.6C217,73.6,215.9,73.8,214.7,73.8z"/>
		<path class="st4" d="M228.9,73.6v-7.8c0-1-0.2-1.7-0.7-2.2c-0.4-0.5-1.2-0.7-2.1-0.7c-1.3,0-2.2,0.3-2.8,1s-0.9,1.8-0.9,3.4v6.3
			h-1.8V56.4h1.8v5.2c0,0.6,0,1.1-0.1,1.6h0.1c0.4-0.6,0.9-1,1.5-1.4c0.7-0.3,1.4-0.5,2.3-0.5c1.5,0,2.6,0.4,3.3,1.1
			c0.7,0.7,1.1,1.8,1.1,3.4v7.9H228.9z"/>
		<path class="st4" d="M245,67.5c0,2-0.5,3.5-1.5,4.6c-1,1.1-2.4,1.7-4.1,1.7c-1.1,0-2-0.3-2.9-0.8s-1.5-1.2-1.9-2.2
			c-0.5-1-0.7-2.1-0.7-3.3c0-2,0.5-3.5,1.5-4.6c1-1.1,2.4-1.7,4.1-1.7c1.7,0,3,0.6,4,1.7C244.5,64.1,245,65.6,245,67.5z M235.8,67.5
			c0,1.5,0.3,2.7,0.9,3.5c0.6,0.8,1.5,1.2,2.7,1.2c1.2,0,2.1-0.4,2.7-1.2c0.6-0.8,0.9-2,0.9-3.5c0-1.5-0.3-2.7-0.9-3.5
			c-0.6-0.8-1.5-1.2-2.8-1.2c-1.2,0-2.1,0.4-2.7,1.2S235.8,66,235.8,67.5z"/>
		<path class="st4" d="M258.7,67.5c0,2-0.5,3.5-1.5,4.6c-1,1.1-2.4,1.7-4.1,1.7c-1.1,0-2-0.3-2.9-0.8s-1.5-1.2-1.9-2.2
			c-0.5-1-0.7-2.1-0.7-3.3c0-2,0.5-3.5,1.5-4.6c1-1.1,2.4-1.7,4.1-1.7c1.7,0,3,0.6,4,1.7C258.2,64.1,258.7,65.6,258.7,67.5z
			 M249.5,67.5c0,1.5,0.3,2.7,0.9,3.5c0.6,0.8,1.5,1.2,2.7,1.2c1.2,0,2.1-0.4,2.7-1.2c0.6-0.8,0.9-2,0.9-3.5c0-1.5-0.3-2.7-0.9-3.5
			c-0.6-0.8-1.5-1.2-2.8-1.2c-1.2,0-2.1,0.4-2.7,1.2S249.5,66,249.5,67.5z"/>
		<path class="st4" d="M263.8,73.6h-1.8V56.4h1.8V73.6z"/>
		<path class="st4" d="M279,62.9h-3.1v10.7h-1.8V62.9h-2.2v-0.8l2.2-0.7v-0.7c0-3,1.3-4.5,3.9-4.5c0.6,0,1.4,0.1,2.3,0.4l-0.5,1.5
			c-0.7-0.2-1.3-0.3-1.8-0.3c-0.7,0-1.2,0.2-1.5,0.7c-0.3,0.5-0.5,1.2-0.5,2.2v0.8h3.1V62.9z"/>
		<path class="st4" d="M291.7,67.5c0,2-0.5,3.5-1.5,4.6c-1,1.1-2.4,1.7-4.1,1.7c-1.1,0-2-0.3-2.9-0.8s-1.5-1.2-1.9-2.2
			c-0.5-1-0.7-2.1-0.7-3.3c0-2,0.5-3.5,1.5-4.6c1-1.1,2.4-1.7,4.1-1.7c1.7,0,3,0.6,4,1.7C291.2,64.1,291.7,65.6,291.7,67.5z
			 M282.5,67.5c0,1.5,0.3,2.7,0.9,3.5c0.6,0.8,1.5,1.2,2.7,1.2c1.2,0,2.1-0.4,2.7-1.2c0.6-0.8,0.9-2,0.9-3.5c0-1.5-0.3-2.7-0.9-3.5
			c-0.6-0.8-1.5-1.2-2.8-1.2c-1.2,0-2.1,0.4-2.7,1.2S282.5,66,282.5,67.5z"/>
		<path class="st4" d="M300.4,61.3c0.5,0,1,0,1.4,0.1l-0.3,1.7c-0.5-0.1-0.9-0.2-1.3-0.2c-1,0-1.8,0.4-2.5,1.2s-1,1.8-1,3v6.5h-1.8
			V61.5h1.5l0.2,2.2h0.1c0.5-0.8,1-1.4,1.6-1.8S299.7,61.3,300.4,61.3z"/>
		<path class="st4" d="M323.2,65.4c0,2.7-0.7,4.7-2.2,6.1c-1.4,1.4-3.5,2.1-6.3,2.1h-4.5V57.4h5c2.5,0,4.5,0.7,5.9,2.1
			S323.2,62.9,323.2,65.4z M321.2,65.4c0-2.1-0.5-3.7-1.6-4.8s-2.6-1.6-4.7-1.6h-2.7V72h2.3c2.2,0,3.9-0.6,5.1-1.7
			C320.7,69.2,321.2,67.6,321.2,65.4z"/>
		<path class="st4" d="M331.7,73.8c-1.8,0-3.2-0.5-4.2-1.6s-1.6-2.6-1.6-4.5c0-2,0.5-3.5,1.4-4.7c1-1.2,2.3-1.7,3.9-1.7
			c1.5,0,2.7,0.5,3.6,1.5s1.3,2.3,1.3,4v1.2h-8.4c0,1.4,0.4,2.5,1.1,3.2c0.7,0.7,1.6,1.1,2.9,1.1c1.3,0,2.6-0.3,3.9-0.8v1.6
			c-0.6,0.3-1.3,0.5-1.8,0.6C333.2,73.8,332.5,73.8,331.7,73.8z M331.2,62.8c-1,0-1.8,0.3-2.3,1s-0.9,1.5-1,2.6h6.3
			c0-1.2-0.3-2-0.8-2.7C332.9,63.1,332.2,62.8,331.2,62.8z"/>
		<path class="st4" d="M341.9,73.6l-4.6-12.1h2l2.6,7.2c0.6,1.7,0.9,2.8,1,3.3h0.1c0.1-0.4,0.3-1.2,0.8-2.4c0.4-1.2,1.4-3.9,2.9-8h2
			l-4.6,12.1H341.9z"/>
		<path class="st4" d="M355.8,73.8c-1.8,0-3.2-0.5-4.2-1.6s-1.6-2.6-1.6-4.5c0-2,0.5-3.5,1.4-4.7c1-1.2,2.3-1.7,3.9-1.7
			c1.5,0,2.7,0.5,3.6,1.5s1.3,2.3,1.3,4v1.2h-8.4c0,1.4,0.4,2.5,1.1,3.2c0.7,0.7,1.6,1.1,2.9,1.1c1.3,0,2.6-0.3,3.9-0.8v1.6
			c-0.6,0.3-1.3,0.5-1.8,0.6C357.3,73.8,356.6,73.8,355.8,73.8z M355.3,62.8c-1,0-1.8,0.3-2.3,1s-0.9,1.5-1,2.6h6.3
			c0-1.2-0.3-2-0.8-2.7C357,63.1,356.2,62.8,355.3,62.8z"/>
		<path class="st4" d="M365.2,73.6h-1.8V56.4h1.8V73.6z"/>
		<path class="st4" d="M379.6,67.5c0,2-0.5,3.5-1.5,4.6c-1,1.1-2.4,1.7-4.1,1.7c-1.1,0-2-0.3-2.9-0.8s-1.5-1.2-1.9-2.2
			c-0.5-1-0.7-2.1-0.7-3.3c0-2,0.5-3.5,1.5-4.6c1-1.1,2.4-1.7,4.1-1.7c1.7,0,3,0.6,4,1.7C379.1,64.1,379.6,65.6,379.6,67.5z
			 M370.3,67.5c0,1.5,0.3,2.7,0.9,3.5c0.6,0.8,1.5,1.2,2.7,1.2c1.2,0,2.1-0.4,2.7-1.2c0.6-0.8,0.9-2,0.9-3.5c0-1.5-0.3-2.7-0.9-3.5
			c-0.6-0.8-1.5-1.2-2.8-1.2c-1.2,0-2.1,0.4-2.7,1.2S370.3,66,370.3,67.5z"/>
		<path class="st4" d="M388.4,73.8c-0.8,0-1.5-0.1-2.2-0.4c-0.7-0.3-1.2-0.7-1.6-1.3h-0.1c0.1,0.7,0.1,1.4,0.1,2v5h-1.8V61.5h1.5
			l0.3,1.7h0.1c0.5-0.7,1-1.1,1.6-1.4s1.3-0.4,2.2-0.4c1.6,0,2.8,0.5,3.7,1.6c0.9,1.1,1.3,2.6,1.3,4.6c0,2-0.4,3.5-1.3,4.6
			C391.2,73.3,390,73.8,388.4,73.8z M388.2,62.8c-1.2,0-2.1,0.3-2.7,1c-0.6,0.7-0.8,1.8-0.9,3.3v0.4c0,1.7,0.3,2.9,0.9,3.7
			c0.6,0.7,1.5,1.1,2.7,1.1c1,0,1.9-0.4,2.5-1.3c0.6-0.8,0.9-2,0.9-3.5c0-1.5-0.3-2.7-0.9-3.5S389.2,62.8,388.2,62.8z"/>
		<path class="st4" d="M401.8,73.8c-1.8,0-3.2-0.5-4.2-1.6s-1.6-2.6-1.6-4.5c0-2,0.5-3.5,1.4-4.7c1-1.2,2.3-1.7,3.9-1.7
			c1.5,0,2.7,0.5,3.6,1.5s1.3,2.3,1.3,4v1.2h-8.4c0,1.4,0.4,2.5,1.1,3.2c0.7,0.7,1.6,1.1,2.9,1.1c1.3,0,2.6-0.3,3.9-0.8v1.6
			c-0.6,0.3-1.3,0.5-1.8,0.6C403.3,73.8,402.6,73.8,401.8,73.8z M401.3,62.8c-1,0-1.8,0.3-2.3,1s-0.9,1.5-1,2.6h6.3
			c0-1.2-0.3-2-0.8-2.7C403,63.1,402.2,62.8,401.3,62.8z"/>
		<path class="st4" d="M414.9,61.3c0.5,0,1,0,1.4,0.1l-0.3,1.7c-0.5-0.1-0.9-0.2-1.3-0.2c-1,0-1.8,0.4-2.5,1.2s-1,1.8-1,3v6.5h-1.8
			V61.5h1.5l0.2,2.2h0.1c0.5-0.8,1-1.4,1.6-1.8S414.1,61.3,414.9,61.3z"/>
		<path class="st4" d="M426.4,70.3c0,1.1-0.4,2-1.3,2.6c-0.8,0.6-2,0.9-3.5,0.9c-1.6,0-2.9-0.3-3.8-0.8v-1.7
			c0.6,0.3,1.2,0.5,1.9,0.7c0.7,0.2,1.3,0.3,1.9,0.3c1,0,1.7-0.2,2.2-0.5s0.8-0.8,0.8-1.4c0-0.5-0.2-0.9-0.6-1.2
			c-0.4-0.3-1.2-0.7-2.4-1.2c-1.1-0.4-1.9-0.8-2.4-1.1c-0.5-0.3-0.8-0.7-1.1-1.1s-0.3-0.9-0.3-1.4c0-1,0.4-1.8,1.2-2.3
			s1.9-0.9,3.3-0.9c1.3,0,2.6,0.3,3.8,0.8l-0.7,1.5c-1.2-0.5-2.3-0.8-3.3-0.8c-0.9,0-1.5,0.1-2,0.4s-0.7,0.6-0.7,1.1
			c0,0.3,0.1,0.6,0.2,0.8c0.2,0.2,0.4,0.4,0.8,0.7c0.4,0.2,1.1,0.5,2.1,0.9c1.4,0.5,2.4,1.1,2.9,1.6
			C426.2,68.8,426.4,69.5,426.4,70.3z"/>
	</g>
</g>
</svg>
